<?xml version="1.0" encoding="UTF-8" standalone="no"?>
<!DOCTYPE svg PUBLIC "-//W3C//DTD SVG 1.1//EN"
 "http://www.w3.org/Graphics/SVG/1.1/DTD/svg11.dtd">
<!-- Generated by graphviz version 2.38.0 (20140413.2041)
 -->
<!-- Title: models_diagram Pages: 1 -->
<svg width="252pt" height="416pt"
 viewBox="0.00 0.00 252.00 416.00" xmlns="http://www.w3.org/2000/svg" xmlns:xlink="http://www.w3.org/1999/xlink">
<g id="graph0" class="graph" transform="scale(1 1) rotate(0) translate(4 412)">
<title>models_diagram</title>
<polygon fill="none" stroke="none" points="-4,4 -4,-412 248,-412 248,4 -4,4"/>
<!-- Operation -->
<g id="node1" class="node"><title>Operation</title>
<path fill="none" stroke="black" d="M12,-158.5C12,-158.5 232,-158.5 232,-158.5 238,-158.5 244,-164.5 244,-170.5 244,-170.5 244,-252.5 244,-252.5 244,-258.5 238,-264.5 232,-264.5 232,-264.5 12,-264.5 12,-264.5 6,-264.5 0,-258.5 0,-252.5 0,-252.5 0,-170.5 0,-170.5 0,-164.5 6,-158.5 12,-158.5"/>
<text text-anchor="middle" x="122" y="-249.3" font-family="Times,serif" font-size="14.00">Operation</text>
<polyline fill="none" stroke="black" points="0,-241.5 244,-241.5 "/>
<text text-anchor="start" x="8" y="-226.3" font-family="Times,serif" font-size="14.00">id :integer</text>
<text text-anchor="start" x="8" y="-211.3" font-family="Times,serif" font-size="14.00">worker_id :integer</text>
<text text-anchor="start" x="8" y="-196.3" font-family="Times,serif" font-size="14.00">created_at :timestamp without time zone</text>
<text text-anchor="start" x="8" y="-181.3" font-family="Times,serif" font-size="14.00">updated_at :timestamp without time zone</text>
<text text-anchor="start" x="8" y="-166.3" font-family="Times,serif" font-size="14.00">inventario_id :integer</text>
</g>
<!-- Inventario -->
<g id="node3" class="node"><title>Inventario</title>
<path fill="none" stroke="black" d="M12,-0.5C12,-0.5 232,-0.5 232,-0.5 238,-0.5 244,-6.5 244,-12.5 244,-12.5 244,-109.5 244,-109.5 244,-115.5 238,-121.5 232,-121.5 232,-121.5 12,-121.5 12,-121.5 6,-121.5 0,-115.5 0,-109.5 0,-109.5 0,-12.5 0,-12.5 0,-6.5 6,-0.5 12,-0.5"/>
<text text-anchor="middle" x="122" y="-106.3" font-family="Times,serif" font-size="14.00">Inventario</text>
<polyline fill="none" stroke="black" points="0,-98.5 244,-98.5 "/>
<text text-anchor="start" x="8" y="-83.3" font-family="Times,serif" font-size="14.00">id :integer</text>
<text text-anchor="start" x="8" y="-68.3" font-family="Times,serif" font-size="14.00">serial :character varying</text>
<text text-anchor="start" x="8" y="-53.3" font-family="Times,serif" font-size="14.00">size :integer</text>
<text text-anchor="start" x="8" y="-38.3" font-family="Times,serif" font-size="14.00">description :text</text>
<text text-anchor="start" x="8" y="-23.3" font-family="Times,serif" font-size="14.00">created_at :timestamp without time zone</text>
<text text-anchor="start" x="8" y="-8.3" font-family="Times,serif" font-size="14.00">updated_at :timestamp without time zone</text>
</g>
<!-- Operation&#45;&gt;Inventario -->
<g id="edge1" class="edge"><title>Operation&#45;&gt;Inventario</title>
<path fill="none" stroke="#a94d03" d="M122,-150.033C122,-143.469 122,-136.755 122,-130.108"/>
<ellipse fill="none" stroke="#a94d03" cx="122" cy="-154.144" rx="4" ry="4"/>
<ellipse fill="#a94d03" stroke="#a94d03" cx="122" cy="-125.74" rx="4" ry="4"/>
</g>
<!-- Worker -->
<g id="node2" class="node"><title>Worker</title>
<path fill="none" stroke="black" d="M12,-301.5C12,-301.5 232,-301.5 232,-301.5 238,-301.5 244,-307.5 244,-313.5 244,-313.5 244,-395.5 244,-395.5 244,-401.5 238,-407.5 232,-407.5 232,-407.5 12,-407.5 12,-407.5 6,-407.5 0,-401.5 0,-395.5 0,-395.5 0,-313.5 0,-313.5 0,-307.5 6,-301.5 12,-301.5"/>
<text text-anchor="middle" x="122" y="-392.3" font-family="Times,serif" font-size="14.00">Worker</text>
<polyline fill="none" stroke="black" points="0,-384.5 244,-384.5 "/>
<text text-anchor="start" x="8" y="-369.3" font-family="Times,serif" font-size="14.00">id :integer</text>
<text text-anchor="start" x="8" y="-354.3" font-family="Times,serif" font-size="14.00">name :character varying</text>
<text text-anchor="start" x="8" y="-339.3" font-family="Times,serif" font-size="14.00">email :character varying</text>
<text text-anchor="start" x="8" y="-324.3" font-family="Times,serif" font-size="14.00">created_at :timestamp without time zone</text>
<text text-anchor="start" x="8" y="-309.3" font-family="Times,serif" font-size="14.00">updated_at :timestamp without time zone</text>
</g>
<!-- Worker&#45;&gt;Operation -->
<g id="edge2" class="edge"><title>Worker&#45;&gt;Operation</title>
<path fill="none" stroke="#af8fd8" d="M122,-293.194C122,-287.154 122,-281.013 122,-274.952"/>
<ellipse fill="none" stroke="#af8fd8" cx="122" cy="-297.397" rx="4" ry="4"/>
<polygon fill="#af8fd8" stroke="#af8fd8" points="122,-274.859 126.5,-264.859 122,-269.859 122,-264.859 122,-264.859 122,-264.859 122,-269.859 117.5,-264.859 122,-274.859 122,-274.859"/>
</g>
</g>
</svg>
