<?xml version="1.0" encoding="UTF-8" standalone="no"?>
<!DOCTYPE svg PUBLIC "-//W3C//DTD SVG 1.1//EN"
 "http://www.w3.org/Graphics/SVG/1.1/DTD/svg11.dtd">
<!-- Generated by graphviz version 2.38.0 (20140413.2041)
 -->
<!-- Title: models_diagram Pages: 1 -->
<svg width="325pt" height="230pt"
 viewBox="0.00 0.00 324.80 230.00" xmlns="http://www.w3.org/2000/svg" xmlns:xlink="http://www.w3.org/1999/xlink">
<g id="graph0" class="graph" transform="scale(1 1) rotate(0) translate(4 226)">
<title>models_diagram</title>
<polygon fill="none" stroke="none" points="-4,4 -4,-226 320.796,-226 320.796,4 -4,4"/>
<!-- _diagram_info -->
<g id="node1" class="node"><title>_diagram_info</title>
<text text-anchor="start" x="8" y="-207.6" font-family="Times,serif" font-size="13.00">Models diagram</text>
<text text-anchor="start" x="8" y="-193.6" font-family="Times,serif" font-size="13.00">Date: Jul 18 2016 &#45; 20:23</text>
<text text-anchor="start" x="8" y="-179.6" font-family="Times,serif" font-size="13.00">Migration version: 20160719010359</text>
<text text-anchor="start" x="8" y="-165.6" font-family="Times,serif" font-size="13.00">Generated by RailRoady 1.5.1</text>
<text text-anchor="start" x="8" y="-151.6" font-family="Times,serif" font-size="13.00">http://railroady.prestonlee.com</text>
</g>
<!-- Operation -->
<g id="node2" class="node"><title>Operation</title>
<ellipse fill="none" stroke="black" cx="270" cy="-90" rx="46.2923" ry="18"/>
<text text-anchor="middle" x="270" y="-86.3" font-family="Times,serif" font-size="14.00">Operation</text>
</g>
<!-- Inventario -->
<g id="node4" class="node"><title>Inventario</title>
<ellipse fill="none" stroke="black" cx="270" cy="-18" rx="46.5926" ry="18"/>
<text text-anchor="middle" x="270" y="-14.3" font-family="Times,serif" font-size="14.00">Inventario</text>
</g>
<!-- Operation&#45;&gt;Inventario -->
<g id="edge1" class="edge"><title>Operation&#45;&gt;Inventario</title>
<path fill="none" stroke="#f09ca7" d="M270,-63.6398C270,-57.348 270,-50.6053 270,-44.3156"/>
<ellipse fill="none" stroke="#f09ca7" cx="270" cy="-67.6966" rx="4" ry="4"/>
<ellipse fill="#f09ca7" stroke="#f09ca7" cx="270" cy="-40.1043" rx="4" ry="4"/>
</g>
<!-- Worker -->
<g id="node3" class="node"><title>Worker</title>
<ellipse fill="none" stroke="black" cx="270" cy="-183" rx="38.1938" ry="18"/>
<text text-anchor="middle" x="270" y="-179.3" font-family="Times,serif" font-size="14.00">Worker</text>
</g>
<!-- Worker&#45;&gt;Operation -->
<g id="edge2" class="edge"><title>Worker&#45;&gt;Operation</title>
<path fill="none" stroke="#94fc1e" d="M270,-156.729C270,-144.725 270,-130.362 270,-118.129"/>
<ellipse fill="none" stroke="#94fc1e" cx="270" cy="-160.884" rx="4" ry="4"/>
<polygon fill="#94fc1e" stroke="#94fc1e" points="270,-118.04 274.5,-108.04 270,-113.04 270,-108.04 270,-108.04 270,-108.04 270,-113.04 265.5,-108.04 270,-118.04 270,-118.04"/>
</g>
</g>
</svg>
