<?xml version="1.0" encoding="UTF-8" standalone="no"?>
<!DOCTYPE svg PUBLIC "-//W3C//DTD SVG 1.1//EN"
 "http://www.w3.org/Graphics/SVG/1.1/DTD/svg11.dtd">
<!-- Generated by graphviz version 2.38.0 (20140413.2041)
 -->
<!-- Title: models_diagram Pages: 1 -->
<svg width="484pt" height="416pt"
 viewBox="0.00 0.00 484.00 416.00" xmlns="http://www.w3.org/2000/svg" xmlns:xlink="http://www.w3.org/1999/xlink">
<g id="graph0" class="graph" transform="scale(1 1) rotate(0) translate(4 412)">
<title>models_diagram</title>
<polygon fill="none" stroke="none" points="-4,4 -4,-412 480,-412 480,4 -4,4"/>
<!-- _diagram_info -->
<g id="node1" class="node"><title>_diagram_info</title>
<text text-anchor="start" x="8" y="-379.1" font-family="Times,serif" font-size="13.00">Models diagram</text>
<text text-anchor="start" x="8" y="-365.1" font-family="Times,serif" font-size="13.00">Date: Jul 18 2016 &#45; 20:23</text>
<text text-anchor="start" x="8" y="-351.1" font-family="Times,serif" font-size="13.00">Migration version: 20160719010359</text>
<text text-anchor="start" x="8" y="-337.1" font-family="Times,serif" font-size="13.00">Generated by RailRoady 1.5.1</text>
<text text-anchor="start" x="8" y="-323.1" font-family="Times,serif" font-size="13.00">http://railroady.prestonlee.com</text>
</g>
<!-- Operation -->
<g id="node2" class="node"><title>Operation</title>
<path fill="none" stroke="black" d="M244,-158.5C244,-158.5 464,-158.5 464,-158.5 470,-158.5 476,-164.5 476,-170.5 476,-170.5 476,-252.5 476,-252.5 476,-258.5 470,-264.5 464,-264.5 464,-264.5 244,-264.5 244,-264.5 238,-264.5 232,-258.5 232,-252.5 232,-252.5 232,-170.5 232,-170.5 232,-164.5 238,-158.5 244,-158.5"/>
<text text-anchor="middle" x="354" y="-249.3" font-family="Times,serif" font-size="14.00">Operation</text>
<polyline fill="none" stroke="black" points="232,-241.5 476,-241.5 "/>
<text text-anchor="start" x="240" y="-226.3" font-family="Times,serif" font-size="14.00">id :integer</text>
<text text-anchor="start" x="240" y="-211.3" font-family="Times,serif" font-size="14.00">worker_id :integer</text>
<text text-anchor="start" x="240" y="-196.3" font-family="Times,serif" font-size="14.00">created_at :timestamp without time zone</text>
<text text-anchor="start" x="240" y="-181.3" font-family="Times,serif" font-size="14.00">updated_at :timestamp without time zone</text>
<text text-anchor="start" x="240" y="-166.3" font-family="Times,serif" font-size="14.00">inventario_id :integer</text>
</g>
<!-- Inventario -->
<g id="node4" class="node"><title>Inventario</title>
<path fill="none" stroke="black" d="M244,-0.5C244,-0.5 464,-0.5 464,-0.5 470,-0.5 476,-6.5 476,-12.5 476,-12.5 476,-109.5 476,-109.5 476,-115.5 470,-121.5 464,-121.5 464,-121.5 244,-121.5 244,-121.5 238,-121.5 232,-115.5 232,-109.5 232,-109.5 232,-12.5 232,-12.5 232,-6.5 238,-0.5 244,-0.5"/>
<text text-anchor="middle" x="354" y="-106.3" font-family="Times,serif" font-size="14.00">Inventario</text>
<polyline fill="none" stroke="black" points="232,-98.5 476,-98.5 "/>
<text text-anchor="start" x="240" y="-83.3" font-family="Times,serif" font-size="14.00">id :integer</text>
<text text-anchor="start" x="240" y="-68.3" font-family="Times,serif" font-size="14.00">serial :character varying</text>
<text text-anchor="start" x="240" y="-53.3" font-family="Times,serif" font-size="14.00">size :integer</text>
<text text-anchor="start" x="240" y="-38.3" font-family="Times,serif" font-size="14.00">description :text</text>
<text text-anchor="start" x="240" y="-23.3" font-family="Times,serif" font-size="14.00">created_at :timestamp without time zone</text>
<text text-anchor="start" x="240" y="-8.3" font-family="Times,serif" font-size="14.00">updated_at :timestamp without time zone</text>
</g>
<!-- Operation&#45;&gt;Inventario -->
<g id="edge1" class="edge"><title>Operation&#45;&gt;Inventario</title>
<path fill="none" stroke="#fa8fc9" d="M354,-150.033C354,-143.469 354,-136.755 354,-130.108"/>
<ellipse fill="none" stroke="#fa8fc9" cx="354" cy="-154.144" rx="4" ry="4"/>
<ellipse fill="#fa8fc9" stroke="#fa8fc9" cx="354" cy="-125.74" rx="4" ry="4"/>
</g>
<!-- Worker -->
<g id="node3" class="node"><title>Worker</title>
<path fill="none" stroke="black" d="M244,-301.5C244,-301.5 464,-301.5 464,-301.5 470,-301.5 476,-307.5 476,-313.5 476,-313.5 476,-395.5 476,-395.5 476,-401.5 470,-407.5 464,-407.5 464,-407.5 244,-407.5 244,-407.5 238,-407.5 232,-401.5 232,-395.5 232,-395.5 232,-313.5 232,-313.5 232,-307.5 238,-301.5 244,-301.5"/>
<text text-anchor="middle" x="354" y="-392.3" font-family="Times,serif" font-size="14.00">Worker</text>
<polyline fill="none" stroke="black" points="232,-384.5 476,-384.5 "/>
<text text-anchor="start" x="240" y="-369.3" font-family="Times,serif" font-size="14.00">id :integer</text>
<text text-anchor="start" x="240" y="-354.3" font-family="Times,serif" font-size="14.00">name :character varying</text>
<text text-anchor="start" x="240" y="-339.3" font-family="Times,serif" font-size="14.00">email :character varying</text>
<text text-anchor="start" x="240" y="-324.3" font-family="Times,serif" font-size="14.00">created_at :timestamp without time zone</text>
<text text-anchor="start" x="240" y="-309.3" font-family="Times,serif" font-size="14.00">updated_at :timestamp without time zone</text>
</g>
<!-- Worker&#45;&gt;Operation -->
<g id="edge2" class="edge"><title>Worker&#45;&gt;Operation</title>
<path fill="none" stroke="#f3bfdc" d="M354,-293.194C354,-287.154 354,-281.013 354,-274.952"/>
<ellipse fill="none" stroke="#f3bfdc" cx="354" cy="-297.397" rx="4" ry="4"/>
<polygon fill="#f3bfdc" stroke="#f3bfdc" points="354,-274.859 358.5,-264.859 354,-269.859 354,-264.859 354,-264.859 354,-264.859 354,-269.859 349.5,-264.859 354,-274.859 354,-274.859"/>
</g>
</g>
</svg>
